<svg width="462" height="462" viewBox="0 0 462 462" fill="none" xmlns="http://www.w3.org/2000/svg">
<rect width="462" height="462" rx="231" fill="#0FA68D"/>
<path fill-rule="evenodd" clip-rule="evenodd" d="M160.339 360.098C143.504 349.179 129.427 334.508 119.214 317.235C109.001 299.962 102.93 280.557 101.476 260.543C100.023 240.53 103.228 220.451 110.838 201.884C118.449 183.317 130.258 166.766 145.34 153.53C160.422 140.293 178.366 130.732 197.764 125.596C217.163 120.461 237.487 119.89 257.143 123.929C276.798 127.968 295.251 136.507 311.052 148.876C326.853 161.244 339.573 177.106 348.214 195.217L340.07 199.103C332.029 182.25 320.193 167.49 305.49 155.981C290.787 144.472 273.616 136.526 255.326 132.768C237.036 129.009 218.124 129.54 200.074 134.319C182.024 139.098 165.326 147.995 151.292 160.312C137.258 172.628 126.269 188.029 119.188 205.306C112.106 222.584 109.124 241.267 110.476 259.89C111.829 278.513 117.478 296.569 126.981 312.642C136.485 328.715 149.583 342.367 165.249 352.527L160.339 360.098ZM152.869 172.952C170.929 154.892 194.693 143.652 220.111 141.149C245.529 138.645 271.029 145.033 292.265 159.223C313.502 173.412 329.161 194.527 336.576 218.968C343.99 243.409 342.7 269.665 332.926 293.262C323.152 316.859 305.498 336.337 282.973 348.377C260.447 360.417 234.444 364.274 209.394 359.291C184.344 354.308 161.796 340.794 145.593 321.05C129.39 301.307 120.534 276.556 120.534 251.015L145.276 251.015C145.276 270.832 152.147 290.036 164.719 305.354C177.291 320.673 194.785 331.159 214.221 335.025C233.657 338.891 253.832 335.898 271.309 326.556C288.786 317.215 302.484 302.102 310.067 283.794C317.651 265.485 318.652 245.114 312.899 226.15C307.146 207.187 294.997 190.804 278.519 179.795C262.042 168.785 242.257 163.829 222.536 165.772C202.814 167.714 184.377 176.434 170.364 190.447L152.869 172.952ZM346.008 311.464C354.716 294.864 359.727 276.575 360.696 257.855L351.685 257.388C350.783 274.808 346.12 291.826 338.017 307.273C329.915 322.72 318.564 336.229 304.745 346.874C290.927 357.518 274.967 365.044 257.964 368.936C240.961 372.828 223.316 372.992 206.243 369.419L204.394 378.251C222.742 382.091 241.704 381.915 259.977 377.732C278.25 373.55 295.401 365.461 310.252 354.022C325.103 342.583 337.301 328.065 346.008 311.464Z" fill="url(#paint0_linear_560_1554)"/>
<path d="M210.121 51.1316L268.241 79.4198L226.416 113.683L210.121 51.1316Z" fill="#D5F8AA"/>
<defs>
<linearGradient id="paint0_linear_560_1554" x1="289.693" y1="533.871" x2="74.1424" y2="448.876" gradientUnits="userSpaceOnUse">
<stop stop-color="#FDFF8B"/>
<stop offset="1" stop-color="#63E3FF"/>
</linearGradient>
</defs>
</svg>
