<svg width="145" height="55" viewBox="0 0 145 55" fill="none" xmlns="http://www.w3.org/2000/svg">
<path d="M15.8276 36.2719C15.15 31.1118 16.4531 28.2973 17.3022 26.2165M15.8276 36.2719C16.6095 39.5034 17.9646 42.7871 21.5089 44.9241C28.8059 49.615 40.4291 48.3641 45.537 44.4029C48.4558 42.0053 49.4132 40.2853 50.3322 36.7931M15.8276 36.2719C10.4547 35.5695 2.29074 33.4551 5.53388 30.2684M61.3224 31.1328C61.4273 32.3479 59.8209 35.1056 50.3322 36.7931M61.3224 31.1328C60.8365 28.9996 54.9159 27.4935 49.1856 26.5251M61.3224 31.1328C60.449 27.3433 53.261 23.9041 49.7761 22.6582C48.7858 11.9668 39.0512 9.37506 33.6738 9.37494M50.3322 36.7931C50.5928 35.8028 51.2183 31.2682 49.1856 26.5251M17.3022 26.2165C10.3108 27.3358 6.84683 28.9872 5.82995 30.0041C5.72135 30.093 5.62277 30.1811 5.53388 30.2684M17.3022 26.2165C21.5909 25.5299 27.2069 25.0435 34.3996 25.0266C38.5791 25.1739 43.7423 25.6052 49.1856 26.5251M5.53388 30.2684C5.85461 29.0516 8.54257 25.826 16.7286 22.6582C17.2675 18.257 21.0746 9.64594 31.956 9.39104M31.956 9.39104C32.283 9.38338 32.6164 9.38326 32.9563 9.39104C33.1853 9.38048 33.4249 9.37493 33.6738 9.37494M31.956 9.39104C31.8255 8.70024 31.742 7.14471 32.4526 6.44898C32.7054 6.25777 33.3222 5.96048 33.7663 6.30095C33.9746 6.51683 34.2478 7.03743 33.6738 7.3927C33.3469 7.63481 32.8892 8.37022 33.6738 9.37494" stroke="white" stroke-width="2.08487"/>
<ellipse cx="24.5928" cy="35.2398" rx="2.47949" ry="3.70073" fill="white"/>
<path fill-rule="evenodd" clip-rule="evenodd" d="M39.6636 35.5559L38.905 34.2419L35.908 35.9722C35.5451 36.1817 35.4208 36.6457 35.6303 37.0086C35.8398 37.3714 36.3038 37.4958 36.6666 37.2863L39.6636 35.5559ZM40.2405 35.2229L41.442 34.5292C41.8048 34.3197 41.9292 33.8557 41.7197 33.4929C41.5102 33.13 41.0462 33.0057 40.6833 33.2152L39.4819 33.9089L40.2405 35.2229Z" fill="white"/>
<path d="M17.3025 26.2165C10.3111 27.3358 6.84713 28.9872 5.83025 30.0041C5.72165 30.093 5.83025 29.6225 5.53418 30.2684C5.85491 29.0516 8.54288 25.826 16.7289 22.6582C17.2678 18.257 21.0749 9.64594 31.9563 9.39104C31.8258 8.70024 31.7423 7.14471 32.4529 6.44898C32.7057 6.25777 33.3225 5.96048 33.7666 6.30095C33.9749 6.51683 34.2481 7.03743 33.6741 7.3927C33.3472 7.63481 32.8895 8.37022 33.6741 9.37494C39.0515 9.37506 48.7861 11.9668 49.7764 22.6582C53.2613 23.9041 60.4493 27.3433 61.3227 31.1328C60.8369 28.9996 54.9162 27.4935 49.1859 26.5251C43.7426 25.6052 38.5795 25.1739 34.3999 25.0266C27.2072 25.0435 21.5912 25.5299 17.3025 26.2165Z" fill="#F4CB82"/>
<path d="M31.9563 9.39104C21.0749 9.64594 17.2678 18.257 16.7289 22.6582C8.54288 25.826 5.85491 29.0516 5.53418 30.2684C5.83025 29.6225 5.72165 30.093 5.83025 30.0041C6.84713 28.9872 10.3111 27.3358 17.3025 26.2165C21.5912 25.5299 27.2072 25.0435 34.3999 25.0266C38.5795 25.1739 43.7426 25.6052 49.1859 26.5251C54.9162 27.4935 60.8369 28.9996 61.3227 31.1328C60.4493 27.3433 53.2613 23.9041 49.7764 22.6582C48.7861 11.9668 39.0515 9.37506 33.6741 9.37494M31.9563 9.39104C32.2833 9.38338 32.6167 9.38326 32.9566 9.39104C33.1856 9.38048 33.4252 9.37493 33.6741 9.37494M31.9563 9.39104C31.8258 8.70024 31.7423 7.14471 32.4529 6.44898C32.7057 6.25777 33.3225 5.96048 33.7666 6.30095C33.9749 6.51683 34.2481 7.03743 33.6741 7.3927C33.3472 7.63481 32.8895 8.37022 33.6741 9.37494" stroke="white" stroke-width="2.08487"/>
<ellipse cx="24.5928" cy="35.2398" rx="2.47949" ry="3.70073" fill="white"/>
<path fill-rule="evenodd" clip-rule="evenodd" d="M39.6636 35.5559L38.905 34.2419L35.908 35.9722C35.5451 36.1817 35.4208 36.6457 35.6303 37.0086C35.8398 37.3714 36.3038 37.4958 36.6666 37.2863L39.6636 35.5559ZM40.2405 35.2229L41.442 34.5292C41.8048 34.3197 41.9292 33.8557 41.7197 33.4929C41.5102 33.13 41.0462 33.0057 40.6833 33.2152L39.4819 33.9088L40.2405 35.2229Z" fill="white"/>
<path d="M70.4897 24.1905C69.5585 24.1905 68.8079 23.7388 68.238 22.8353C67.6821 21.918 67.3554 20.6809 67.2582 19.1242C67.2443 18.9019 67.2373 18.5752 67.2373 18.1444C67.2373 16.4626 67.5153 14.9754 68.0713 13.6827C68.6272 12.3762 69.4125 11.3685 70.4272 10.6597C71.4557 9.93691 72.651 9.57554 74.0131 9.57554C75.3752 9.57554 76.5636 9.93691 77.5783 10.6597C78.6068 11.3685 79.3921 12.3693 79.9342 13.6619C80.4901 14.9545 80.7681 16.4487 80.7681 18.1444C80.7681 18.5752 80.7612 18.9019 80.7473 19.1242C80.65 20.7087 80.3233 21.9458 79.7674 22.8353C79.2114 23.7249 78.4609 24.1696 77.5157 24.1696C76.7513 24.1696 76.2161 23.9611 75.9104 23.5442C75.6185 23.1272 75.4725 22.6199 75.4725 22.0222C75.4725 21.7442 75.4934 21.501 75.5351 21.2925C74.8123 21.3203 74.173 21.3342 73.617 21.3342C73.2695 21.3342 72.8873 21.3203 72.4703 21.2925C72.512 21.501 72.5329 21.7442 72.5329 22.0222C72.5329 22.6338 72.38 23.148 72.0742 23.565C71.7823 23.982 71.2542 24.1905 70.4897 24.1905ZM72.3244 17.5814C73.0749 17.5536 73.624 17.5397 73.9714 17.5397C74.3467 17.5397 74.8957 17.5536 75.6185 17.5814C75.6463 17.4285 75.6602 17.1992 75.6602 16.8934C75.6602 16.2402 75.5212 15.712 75.2432 15.3089C74.9652 14.892 74.5344 14.6835 73.9506 14.6835C73.3807 14.6835 72.9568 14.885 72.6788 15.2881C72.4008 15.6912 72.2618 16.2124 72.2618 16.8517C72.2618 17.088 72.2827 17.3313 72.3244 17.5814Z" fill="white"/>
<path d="M84.5512 24.1696C83.4114 24.1696 82.6331 23.5164 82.2161 22.2098C81.813 20.9033 81.6115 19.2354 81.6115 17.2062C81.6115 15.8857 81.8478 14.6487 82.3204 13.4951C82.8068 12.3276 83.5435 11.3894 84.5303 10.6805C85.5172 9.95776 86.7194 9.59639 88.1371 9.59639C89.2769 9.59639 90.3124 9.83962 91.2436 10.3261C92.1748 10.7987 92.9115 11.4797 93.4536 12.3693C94.0095 13.2588 94.2875 14.2873 94.2875 15.4549C94.2875 16.8031 94.0165 17.9359 93.4744 18.8532C92.9324 19.7706 92.2304 20.4516 91.3687 20.8964C90.507 21.3412 89.5966 21.5635 88.6375 21.5635C87.8592 21.5635 87.1434 21.4315 86.4901 21.1674C86.5735 21.6122 86.6152 21.9527 86.6152 22.189C86.6152 23.5094 85.9272 24.1696 84.5512 24.1696ZM88.3456 18.332C88.846 18.332 89.2769 18.1513 89.6383 17.7899C90.0135 17.4146 90.2012 16.9838 90.2012 16.4973C90.2012 15.9969 90.0135 15.5661 89.6383 15.2047C89.2769 14.8294 88.846 14.6418 88.3456 14.6418C87.8592 14.6418 87.4283 14.8294 87.053 15.2047C86.6777 15.5661 86.4901 15.9969 86.4901 16.4973C86.4901 16.9838 86.6777 17.4146 87.053 17.7899C87.4283 18.1513 87.8592 18.332 88.3456 18.332Z" fill="white"/>
<path d="M97.8666 24.1696C96.7269 24.1696 95.9486 23.5164 95.5316 22.2098C95.1285 20.9033 94.927 19.2354 94.927 17.2062C94.927 15.8857 95.1633 14.6487 95.6358 13.4951C96.1223 12.3276 96.859 11.3894 97.8458 10.6805C98.8326 9.95776 100.035 9.59639 101.453 9.59639C102.592 9.59639 103.628 9.83962 104.559 10.3261C105.49 10.7987 106.227 11.4797 106.769 12.3693C107.325 13.2588 107.603 14.2873 107.603 15.4549C107.603 16.8031 107.332 17.9359 106.79 18.8532C106.248 19.7706 105.546 20.4516 104.684 20.8964C103.822 21.3412 102.912 21.5635 101.953 21.5635C101.175 21.5635 100.459 21.4315 99.8056 21.1674C99.889 21.6122 99.9307 21.9527 99.9307 22.189C99.9307 23.5094 99.2427 24.1696 97.8666 24.1696ZM101.661 18.332C102.161 18.332 102.592 18.1513 102.954 17.7899C103.329 17.4146 103.517 16.9838 103.517 16.4973C103.517 15.9969 103.329 15.5661 102.954 15.2047C102.592 14.8294 102.161 14.6418 101.661 14.6418C101.175 14.6418 100.744 14.8294 100.368 15.2047C99.9932 15.5661 99.8056 15.9969 99.8056 16.4973C99.8056 16.9838 99.9932 17.4146 100.368 17.7899C100.744 18.1513 101.175 18.332 101.661 18.332Z" fill="white"/>
<path d="M114.242 24.1488C112.838 24.1488 111.65 23.8638 110.677 23.294C109.704 22.7102 109.065 21.8415 108.759 20.6879C108.634 20.2153 108.55 19.6385 108.509 18.9575C108.467 18.2764 108.446 17.4077 108.446 16.3514C108.446 14.2804 108.668 12.6333 109.113 11.4102C109.572 10.1732 110.475 9.55469 111.824 9.55469C112.657 9.55469 113.311 9.84657 113.783 10.4303C114.27 11.0141 114.513 11.7369 114.513 12.5986C114.513 13.5159 114.437 14.4958 114.284 15.5383C114.131 16.5807 113.915 17.8455 113.637 19.3327C114.499 19.0547 115.444 18.9158 116.473 18.9158C117.543 18.9158 118.433 19.1103 119.141 19.4995C119.864 19.8887 120.226 20.5211 120.226 21.3967C120.226 22.2446 119.948 22.8701 119.392 23.2731C118.836 23.6762 118.162 23.9264 117.369 24.0237C116.577 24.1071 115.535 24.1488 114.242 24.1488Z" fill="white"/>
<path d="M131.045 20.813C131.712 21.0215 132.046 21.4593 132.046 22.1265C132.046 22.7519 131.726 23.2453 131.087 23.6067C130.448 23.9681 129.343 24.1488 127.772 24.1488C125.812 24.1488 124.13 23.6762 122.727 22.7311C121.337 21.7859 120.642 19.9095 120.642 17.1019C120.642 15.6842 120.885 14.4055 121.371 13.2658C121.858 12.126 122.581 11.2226 123.54 10.5554C124.513 9.88827 125.701 9.55469 127.105 9.55469C128.981 9.55469 130.302 9.84657 131.066 10.4303C131.831 11.0002 132.213 11.7021 132.213 12.5361C132.213 12.9252 132.115 13.2866 131.921 13.6202C131.726 13.9399 131.434 14.19 131.045 14.3707C130.712 14.5375 130.281 14.6209 129.753 14.6209L129.19 14.6001C129.079 14.5862 128.919 14.5792 128.71 14.5792C127.987 14.5792 127.418 14.7113 127.001 14.9753C126.584 15.2255 126.299 15.6147 126.146 16.1429C126.73 16.1151 127.258 16.1012 127.73 16.1012C129.134 16.1012 130.045 16.1429 130.461 16.2263C130.934 16.3236 131.295 16.5112 131.546 16.7892C131.81 17.0672 131.942 17.3938 131.942 17.7691C131.942 18.1444 131.817 18.471 131.566 18.749C131.316 19.013 130.941 19.1937 130.441 19.291C130.051 19.3744 129.106 19.4161 127.605 19.4161C126.994 19.4161 126.563 19.4092 126.313 19.3953C126.743 20.3126 127.55 20.7713 128.731 20.7713C128.801 20.7713 128.96 20.7574 129.211 20.7296C129.544 20.7018 129.829 20.6879 130.065 20.6879C130.468 20.6879 130.795 20.7296 131.045 20.813Z" fill="white"/>
<path d="M72.7205 45.0169C71.8032 45.0169 70.9206 44.8919 70.0727 44.6417C69.2388 44.3776 68.5577 44.0162 68.0296 43.5575C67.5014 43.085 67.2373 42.5498 67.2373 41.9522C67.2373 41.3823 67.411 40.9306 67.7585 40.597C68.106 40.2634 68.5438 40.0966 69.072 40.0966C69.4195 40.0966 69.7183 40.1453 69.9685 40.2426C70.2326 40.326 70.5175 40.4511 70.8233 40.6179C71.0457 40.7291 71.2333 40.8194 71.3862 40.8889C71.553 40.9445 71.7267 40.9723 71.9074 40.9723C72.3661 40.9723 72.5954 40.7916 72.5954 40.4302C72.5954 40.2912 72.4981 40.1731 72.3035 40.0758C72.109 39.9646 71.7823 39.8187 71.3237 39.638C70.5036 39.3183 69.8364 39.0056 69.3222 38.6998C68.5299 38.2272 67.9809 37.7129 67.6751 37.157C67.3832 36.601 67.2373 35.9061 67.2373 35.0721C67.2373 34.266 67.4944 33.5085 68.0087 32.7996C68.523 32.0768 69.2249 31.5 70.1144 31.0692C71.004 30.6383 71.9769 30.4229 73.0332 30.4229C74.0618 30.4229 75 30.5827 75.8478 30.9024C76.7096 31.2082 77.3837 31.639 77.8701 32.195C78.3705 32.7371 78.6207 33.3417 78.6207 34.0088C78.6207 34.7733 78.3914 35.3501 77.9327 35.7393C77.4879 36.1145 76.9875 36.3022 76.4316 36.3022C75.9729 36.3022 75.6254 36.2744 75.3891 36.2188C75.1668 36.1632 74.9444 36.0867 74.722 35.9895C74.5413 35.92 74.3884 35.8713 74.2633 35.8435C74.1382 35.8018 73.9645 35.781 73.7421 35.781C73.5614 35.781 73.3877 35.8435 73.2209 35.9686C73.068 36.0798 72.9915 36.2396 72.9915 36.4481C72.9915 36.601 73.0819 36.7331 73.2626 36.8443C73.4433 36.9415 73.6518 37.0319 73.888 37.1153C74.1243 37.1987 74.2911 37.2612 74.3884 37.3029C75.681 37.7755 76.6331 38.3176 77.2447 38.9291C77.8562 39.5268 78.162 40.3051 78.162 41.2642C78.162 42.4456 77.6825 43.3699 76.7235 44.0371C75.7783 44.6903 74.444 45.0169 72.7205 45.0169Z" fill="#61D361"/>
<path d="M84.3054 44.9961C83.1935 44.9961 82.2205 44.6903 81.3866 44.0788C80.5665 43.4672 79.9341 42.5985 79.4893 41.4727C79.0446 40.3468 78.8222 39.0195 78.8222 37.4906C78.8222 36.601 78.9681 35.6489 79.26 34.6343C79.5658 33.6197 79.9967 32.7649 80.5526 32.0699C81.1225 31.361 81.7827 31.0066 82.5332 31.0066C83.1448 31.0066 83.6521 31.229 84.0552 31.6738C84.4583 32.1185 84.6598 32.6676 84.6598 33.3208C84.6598 33.5154 84.6112 33.7795 84.5139 34.1131C84.4305 34.4328 84.3332 34.7663 84.222 35.1138C84.0135 35.7115 83.8537 36.2396 83.7425 36.6983C83.6313 37.1431 83.5757 37.574 83.5757 37.9909C83.5757 38.6025 83.666 39.0473 83.8467 39.3252C84.0274 39.6032 84.2498 39.7422 84.5139 39.7422C84.8614 39.7422 85.1046 39.5685 85.2436 39.221C85.3965 38.8596 85.4729 38.1994 85.4729 37.2404L85.4521 35.8018C85.4521 34.6899 85.598 33.8073 85.8899 33.154C86.1818 32.4869 86.7655 32.1533 87.6412 32.1533C88.2944 32.1533 88.7879 32.334 89.1214 32.6954C89.455 33.0567 89.6705 33.5154 89.7677 34.0714C89.865 34.6134 89.9137 35.2736 89.9137 36.052V37.1153C89.9137 38.1299 89.9971 38.8527 90.1639 39.2835C90.3446 39.7005 90.6295 39.909 91.0187 39.909C91.2828 39.909 91.4843 39.777 91.6233 39.5129C91.7762 39.2349 91.8526 38.8249 91.8526 38.2828C91.8526 37.8797 91.804 37.4767 91.7067 37.0736C91.6094 36.6705 91.4565 36.1562 91.248 35.5308C91.0673 34.9331 90.9353 34.4883 90.8519 34.1965C90.7824 33.8907 90.7476 33.5988 90.7476 33.3208C90.7476 32.6676 90.9561 32.1255 91.3731 31.6946C91.804 31.2637 92.3043 31.0483 92.8742 31.0483C93.6943 31.0483 94.3823 31.3958 94.9382 32.0907C95.5081 32.7718 95.932 33.6127 96.21 34.6134C96.488 35.6142 96.627 36.5732 96.627 37.4906C96.627 39.0195 96.4046 40.3468 95.9598 41.4727C95.515 42.5985 94.8757 43.4672 94.0417 44.0788C93.2217 44.6764 92.2557 44.9752 91.1438 44.9752C90.5322 44.9752 89.9345 44.8363 89.3508 44.5583C88.767 44.2803 88.2249 43.8633 87.7246 43.3073C87.2242 43.8633 86.6752 44.2872 86.0775 44.5791C85.4938 44.8571 84.903 44.9961 84.3054 44.9961Z" fill="#61D361"/>
<path d="M100.521 45.0378C99.5895 45.0378 98.839 44.5861 98.2691 43.6826C97.7132 42.7653 97.3865 41.5283 97.2892 39.9716C97.2753 39.7492 97.2684 39.4225 97.2684 38.9917C97.2684 37.3099 97.5464 35.8227 98.1023 34.53C98.6583 33.2235 99.4436 32.2158 100.458 31.507C101.487 30.7842 102.682 30.4229 104.044 30.4229C105.406 30.4229 106.595 30.7842 107.609 31.507C108.638 32.2158 109.423 33.2166 109.965 34.5092C110.521 35.8018 110.799 37.296 110.799 38.9917C110.799 39.4225 110.792 39.7492 110.778 39.9716C110.681 41.5561 110.354 42.7931 109.798 43.6826C109.242 44.5722 108.492 45.0169 107.547 45.0169C106.782 45.0169 106.247 44.8085 105.941 44.3915C105.65 43.9745 105.504 43.4672 105.504 42.8695C105.504 42.5915 105.524 42.3483 105.566 42.1398C104.843 42.1676 104.204 42.1815 103.648 42.1815C103.301 42.1815 102.918 42.1676 102.501 42.1398C102.543 42.3483 102.564 42.5915 102.564 42.8695C102.564 43.4811 102.411 43.9954 102.105 44.4123C101.813 44.8293 101.285 45.0378 100.521 45.0378ZM102.355 38.4288C103.106 38.401 103.655 38.3871 104.003 38.3871C104.378 38.3871 104.927 38.401 105.65 38.4288C105.677 38.2759 105.691 38.0465 105.691 37.7407C105.691 37.0875 105.552 36.5593 105.274 36.1562C104.996 35.7393 104.565 35.5308 103.982 35.5308C103.412 35.5308 102.988 35.7323 102.71 36.1354C102.432 36.5385 102.293 37.0597 102.293 37.699C102.293 37.9353 102.314 38.1786 102.355 38.4288Z" fill="#61D361"/>
<path d="M114.582 45.0169C113.443 45.0169 112.664 44.3637 112.247 43.0572C111.844 41.7506 111.643 40.0828 111.643 38.0535C111.643 36.7331 111.879 35.496 112.351 34.3424C112.838 33.1749 113.575 32.2367 114.561 31.5278C115.548 30.8051 116.751 30.4437 118.168 30.4437C119.308 30.4437 120.343 30.6869 121.275 31.1734C122.206 31.646 122.943 32.327 123.485 33.2166C124.041 34.1061 124.319 35.1347 124.319 36.3022C124.319 37.6504 124.048 38.7832 123.506 39.7005C122.963 40.6179 122.262 41.2989 121.4 41.7437C120.538 42.1885 119.628 42.4109 118.669 42.4109C117.89 42.4109 117.174 42.2788 116.521 42.0147C116.605 42.4595 116.646 42.8 116.646 43.0363C116.646 44.3567 115.958 45.0169 114.582 45.0169ZM118.377 39.1793C118.877 39.1793 119.308 38.9986 119.669 38.6372C120.045 38.262 120.232 37.8311 120.232 37.3446C120.232 36.8443 120.045 36.4134 119.669 36.052C119.308 35.6767 118.877 35.4891 118.377 35.4891C117.89 35.4891 117.459 35.6767 117.084 36.052C116.709 36.4134 116.521 36.8443 116.521 37.3446C116.521 37.8311 116.709 38.262 117.084 38.6372C117.459 38.9986 117.89 39.1793 118.377 39.1793Z" fill="#61D361"/>
</svg>
